<svg xmlns="http://www.w3.org/2000/svg" width="64" height="48" viewBox="0 0 64 48" shape-rendering="crispEdges">
  <g fill="#11140e" stroke="#090b07" stroke-width="1">
    <g transform="translate(0 0)"><path d="M9 40l2-22 7-8 8 8 2 22z" fill="#766852"/><path d="M13 18h11l-2 8h-7z" fill="#b25b36"/><rect x="15" y="20" width="3" height="3" fill="#e46a3d"/><rect x="21" y="20" width="3" height="3" fill="#e46a3d"/><path d="M7 40h23v3H7z" fill="#3d3427"/></g>
    <g transform="translate(32 0)"><path d="M8 40l3-22 7-8 8 8 3 22z" fill="#766852"/><path d="M13 18h11l-2 8h-7z" fill="#b25b36"/><rect x="15" y="20" width="3" height="3" fill="#e46a3d"/><rect x="21" y="20" width="3" height="3" fill="#e46a3d"/><path d="M6 40h25v3H6z" fill="#3d3427"/></g>
  </g>
</svg>
